<svg width="20" height="20" viewBox="0 0 20 20" fill="none" xmlns="http://www.w3.org/2000/svg">
<g id="heroicons-solid/arrow-down-circle">
<path id="Subtract" fill-rule="evenodd" clip-rule="evenodd" d="M10 1.875C5.51269 1.875 1.875 5.51269 1.875 10C1.875 14.4873 5.51269 18.125 10 18.125C14.4873 18.125 18.125 14.4873 18.125 10C18.125 5.51269 14.4873 1.875 10 1.875ZM9.55806 13.5669C9.67527 13.6842 9.83424 13.75 10 13.75C10.1658 13.75 10.3247 13.6842 10.4419 13.5669L12.9419 11.0669C13.186 10.8229 13.186 10.4271 12.9419 10.1831C12.6979 9.93898 12.3021 9.93898 12.0581 10.1831L10.625 11.6161L10.625 6.875C10.625 6.52982 10.3452 6.25 10 6.25C9.65482 6.25 9.375 6.52982 9.375 6.875L9.375 11.6161L7.94194 10.1831C7.69786 9.93898 7.30214 9.93898 7.05806 10.1831C6.81398 10.4271 6.81398 10.8229 7.05806 11.0669L9.55806 13.5669Z" fill="white"/>
</g>
</svg>
