<svg width="27" height="24" viewBox="0 0 27 24" fill="none" xmlns="http://www.w3.org/2000/svg">
<path id="Vector" d="M13.5 2.57143C7.44082 2.57143 2.53125 7.55893 2.53125 13.7143V19.2857C2.53125 19.9982 1.96699 20.5714 1.26562 20.5714C0.564258 20.5714 0 19.9982 0 19.2857V13.7143C0 6.13929 6.04336 0 13.5 0C20.9566 0 27 6.13929 27 13.7143V19.2857C27 19.9982 26.4357 20.5714 25.7344 20.5714C25.033 20.5714 24.4688 19.9982 24.4688 19.2857V13.7143C24.4688 7.55893 19.5592 2.57143 13.5 2.57143ZM4.21875 17.1429C4.21875 15.2518 5.73223 13.7143 7.59375 13.7143H8.4375C9.3709 13.7143 10.125 14.4804 10.125 15.4286V22.2857C10.125 23.2339 9.3709 24 8.4375 24H7.59375C5.73223 24 4.21875 22.4625 4.21875 20.5714V17.1429ZM19.4062 13.7143C21.2678 13.7143 22.7812 15.2518 22.7812 17.1429V20.5714C22.7812 22.4625 21.2678 24 19.4062 24H18.5625C17.6291 24 16.875 23.2339 16.875 22.2857V15.4286C16.875 14.4804 17.6291 13.7143 18.5625 13.7143H19.4062Z" fill="#727272"/>
</svg>
