<svg width="20" height="20" viewBox="0 0 20 20" fill="none" xmlns="http://www.w3.org/2000/svg">
<path id="Vector" d="M19.3258 1.83616C19.8218 1.69163 20.1069 1.1682 19.9624 0.672114C19.8179 0.176026 19.2945 -0.109126 18.7946 0.0393093L2.01929 4.95722C1.65214 5.06268 1.32015 5.24237 1.03894 5.47284C0.410107 5.92596 0 6.66423 0 7.50015V7.6564V11.8751V17.5C0 18.8789 1.12096 20 2.4997 20H17.4979C18.8766 20 19.9976 18.8789 19.9976 17.5V7.50015C19.9976 6.12127 18.8766 5.00019 17.4979 5.00019H8.53412L19.3258 1.83616ZM14.3733 9.37513C15.202 9.37513 15.9967 9.70437 16.5827 10.2904C17.1687 10.8765 17.4979 11.6713 17.4979 12.5001C17.4979 13.3289 17.1687 14.1237 16.5827 14.7098C15.9967 15.2958 15.202 15.6251 14.3733 15.6251C13.5446 15.6251 12.7498 15.2958 12.1638 14.7098C11.5778 14.1237 11.2486 13.3289 11.2486 12.5001C11.2486 11.6713 11.5778 10.8765 12.1638 10.2904C12.7498 9.70437 13.5446 9.37513 14.3733 9.37513ZM3.12462 10.0001C3.12462 9.65638 3.40584 9.37513 3.74955 9.37513H7.49909C7.8428 9.37513 8.12402 9.65638 8.12402 10.0001C8.12402 10.3439 7.8428 10.6251 7.49909 10.6251H3.74955C3.40584 10.6251 3.12462 10.3439 3.12462 10.0001ZM2.4997 12.5001C2.4997 12.1563 2.78091 11.8751 3.12462 11.8751H8.12402C8.46772 11.8751 8.74894 12.1563 8.74894 12.5001C8.74894 12.8438 8.46772 13.1251 8.12402 13.1251H3.12462C2.78091 13.1251 2.4997 12.8438 2.4997 12.5001ZM3.12462 15.0001C3.12462 14.6563 3.40584 14.3751 3.74955 14.3751H7.49909C7.8428 14.3751 8.12402 14.6563 8.12402 15.0001C8.12402 15.3438 7.8428 15.6251 7.49909 15.6251H3.74955C3.40584 15.6251 3.12462 15.3438 3.12462 15.0001Z" fill="#727272"/>
</svg>
