<svg width="50" height="50" viewBox="0 0 50 50" fill="none" xmlns="http://www.w3.org/2000/svg">
<g id="heroicons-solid/pause">
<path id="Vector (Stroke)" fill-rule="evenodd" clip-rule="evenodd" d="M14.0625 10.9375C14.0625 10.0746 14.7621 9.375 15.625 9.375H18.75C19.6129 9.375 20.3125 10.0746 20.3125 10.9375V39.0625C20.3125 39.9254 19.6129 40.625 18.75 40.625H15.625C15.2106 40.625 14.8132 40.4604 14.5201 40.1674C14.2271 39.8743 14.0625 39.4769 14.0625 39.0625L14.0625 10.9375ZM29.6875 10.9375C29.6875 10.0746 30.3871 9.375 31.25 9.375H34.375C34.7894 9.375 35.1868 9.53962 35.4799 9.83265C35.7729 10.1257 35.9375 10.5231 35.9375 10.9375L35.9375 39.0625C35.9375 39.9254 35.2379 40.625 34.375 40.625H31.25C30.3871 40.625 29.6875 39.9254 29.6875 39.0625V10.9375Z" fill="white"/>
</g>
</svg>
