<svg width="24" height="24" viewBox="0 0 24 24" fill="none" xmlns="http://www.w3.org/2000/svg">
<g id="shuffle-solid 1" clip-path="url(#clip0_25_1394)">
<path id="Vector" d="M18.9281 1.61267C19.4906 1.37829 20.1328 1.50954 20.5641 1.93611L23.5641 4.93611C23.8453 5.21736 24.0047 5.59704 24.0047 5.99548C24.0047 6.39392 23.8453 6.77361 23.5641 7.05486L20.5641 10.0549C20.1328 10.4861 19.4906 10.6127 18.9281 10.3783C18.3656 10.1439 18 9.60017 18 8.99079V7.50017H16.5C16.0266 7.50017 15.5812 7.72048 15.3 8.10017L13.3125 10.7486L11.4375 8.25017L12.9 6.30017C13.7484 5.16579 15.0844 4.50017 16.5 4.50017H18V3.00017C18 2.39548 18.3656 1.84704 18.9281 1.61267ZM7.6875 13.2517L9.5625 15.7502L8.1 17.7002C7.25156 18.8345 5.91563 19.5002 4.5 19.5002H1.5C0.670312 19.5002 0 18.8299 0 18.0002C0 17.1705 0.670312 16.5002 1.5 16.5002H4.5C4.97344 16.5002 5.41875 16.2799 5.7 15.9002L7.6875 13.2517ZM20.5594 22.0642C20.1281 22.4955 19.4859 22.622 18.9234 22.3877C18.3609 22.1533 17.9953 21.6095 17.9953 21.0002V19.5002H16.5C15.0844 19.5002 13.7484 18.8345 12.9 17.7002L5.7 8.10017C5.41875 7.72048 4.97344 7.50017 4.5 7.50017H1.5C0.670312 7.50017 0 6.82986 0 6.00017C0 5.17048 0.670312 4.50017 1.5 4.50017H4.5C5.91563 4.50017 7.25156 5.16579 8.1 6.30017L15.3 15.9002C15.5812 16.2799 16.0266 16.5002 16.5 16.5002H18V15.0002C18 14.3955 18.3656 13.847 18.9281 13.6127C19.4906 13.3783 20.1328 13.5095 20.5641 13.9361L23.5641 16.9361C23.8453 17.2174 24.0047 17.597 24.0047 17.9955C24.0047 18.3939 23.8453 18.7736 23.5641 19.0549L20.5641 22.0549L20.5594 22.0642Z" fill="black"/>
</g>
<defs>
<clipPath id="clip0_25_1394">
<rect width="24" height="24" fill="white"/>
</clipPath>
</defs>
</svg>
