<svg width="158" height="165" viewBox="0 0 158 165" fill="none" xmlns="http://www.w3.org/2000/svg">
<g id="spotify 1" clip-path="url(#clip0_4_4852)">
<path id="Vector" d="M78.6547 2.57812C35.236 2.57812 0 38.3818 0 82.5C0 126.618 35.236 162.422 78.6547 162.422C122.073 162.422 157.309 126.618 157.309 82.5C157.309 38.3818 122.073 2.57812 78.6547 2.57812ZM110.592 120.173C109.26 120.173 108.436 119.754 107.199 119.013C87.4082 106.896 64.3826 106.38 41.6426 111.117C40.4057 111.439 38.7882 111.955 37.8684 111.955C34.792 111.955 32.8573 109.474 32.8573 106.863C32.8573 103.544 34.792 101.965 37.1707 101.449C63.1457 95.6162 89.6917 96.1318 112.337 109.893C114.271 111.149 115.413 112.277 115.413 115.21C115.413 118.143 113.161 120.173 110.592 120.173ZM119.124 99.0322C117.475 99.0322 116.364 98.291 115.223 97.6787C95.4005 85.7549 65.8416 80.9531 39.5493 88.2041C38.027 88.6231 37.2024 89.042 35.7752 89.042C32.3816 89.042 29.6224 86.2383 29.6224 82.79C29.6224 79.3418 31.2716 77.0537 34.5383 76.1191C43.3552 73.6055 52.3624 71.7363 65.5561 71.7363C86.1395 71.7363 106.025 76.9248 121.693 86.3994C124.262 87.9463 125.277 89.9443 125.277 92.748C125.245 96.2285 122.581 99.0322 119.124 99.0322ZM128.956 74.4756C127.306 74.4756 126.291 74.0566 124.864 73.2188C102.283 59.5225 61.9088 56.2354 35.7752 63.6475C34.6334 63.9697 33.2062 64.4854 31.6839 64.4854C27.4974 64.4854 24.2941 61.166 24.2941 56.8799C24.2941 52.4971 26.9583 50.0156 29.8127 49.1777C40.9765 45.8584 53.4725 44.2793 67.0785 44.2793C90.2309 44.2793 114.493 49.1777 132.222 59.6836C134.696 61.1338 136.314 63.1318 136.314 66.9668C136.314 71.3496 132.825 74.4756 128.956 74.4756Z" fill="#1ED760"/>
</g>
<defs>
<clipPath id="clip0_4_4852">
<rect width="157.309" height="165" fill="white"/>
</clipPath>
</defs>
</svg>
