<svg width="21" height="20" viewBox="0 0 21 20" fill="none" xmlns="http://www.w3.org/2000/svg">
<g id="heroicons-solid/user-plus">
<g id="Union">
<path d="M4.875 5.3125C4.875 3.41402 6.41402 1.875 8.3125 1.875C10.211 1.875 11.75 3.41402 11.75 5.3125C11.75 7.21098 10.211 8.75 8.3125 8.75C6.41402 8.75 4.875 7.21098 4.875 5.3125Z" fill="#0F172A"/>
<path d="M2.375 15.9375C2.375 12.6583 5.03331 10 8.3125 10C11.5917 10 14.25 12.6583 14.25 15.9375V15.9396C14.25 15.9728 14.2497 16.0061 14.2491 16.0391C14.2455 16.2545 14.1312 16.4529 13.9466 16.564C12.3006 17.5551 10.3721 18.125 8.3125 18.125C6.25286 18.125 4.32441 17.5551 2.67838 16.564C2.4938 16.4529 2.37948 16.2545 2.37586 16.0391C2.37529 16.0053 2.375 15.9715 2.375 15.9375Z" fill="#0F172A"/>
<path d="M16.125 6.25C16.125 5.90482 15.8452 5.625 15.5 5.625C15.1548 5.625 14.875 5.90482 14.875 6.25V8.125H13C12.6548 8.125 12.375 8.40482 12.375 8.75C12.375 9.09518 12.6548 9.375 13 9.375H14.875V11.25C14.875 11.5952 15.1548 11.875 15.5 11.875C15.8452 11.875 16.125 11.5952 16.125 11.25V9.375H18C18.3452 9.375 18.625 9.09518 18.625 8.75C18.625 8.40482 18.3452 8.125 18 8.125H16.125V6.25Z" fill="#0F172A"/>
</g>
</g>
</svg>
