<svg width="22" height="20" viewBox="0 0 22 20" fill="none" xmlns="http://www.w3.org/2000/svg">
<g id="heroicons-mini/check-badge">
<path id="Subtract" fill-rule="evenodd" clip-rule="evenodd" d="M18.1508 12.6523C19.1672 12.1487 19.8596 11.1499 19.8596 10C19.8596 8.85007 19.1672 7.85126 18.1508 7.34771C18.4885 6.32002 18.2222 5.15625 17.3521 4.34312C16.4819 3.53 15.2364 3.28122 14.1366 3.59679C13.5977 2.64698 12.5288 2 11.2982 2C10.0676 2 8.99868 2.64699 8.4598 3.59681C7.36 3.28126 6.11458 3.53004 5.24439 4.34316C4.37421 5.15628 4.10797 6.32003 4.44568 7.34771C3.42921 7.85126 2.73682 8.85007 2.73682 10C2.73682 11.1499 3.42921 12.1487 4.44568 12.6523C4.10796 13.68 4.3742 14.8437 5.24439 15.6569C6.11458 16.47 7.36001 16.7188 8.45981 16.4032C8.99869 17.353 10.0676 18 11.2982 18C12.5289 18 13.5978 17.353 14.1366 16.4032C15.2364 16.7187 16.4819 16.47 17.352 15.6568C18.2222 14.8437 18.4885 13.68 18.1508 12.6523ZM15.4254 8.19113C15.6861 7.85614 15.6069 7.38708 15.2484 7.14345C14.8899 6.89982 14.3879 6.97388 14.1272 7.30887L10.3989 12.099L8.3877 10.2197C8.07425 9.92678 7.56605 9.92678 7.2526 10.2197C6.93916 10.5126 6.93916 10.9874 7.2526 11.2803L9.92804 13.7803C10.094 13.9354 10.3244 14.0149 10.5584 13.9977C10.7924 13.9805 11.0066 13.8685 11.1447 13.6911L15.4254 8.19113Z" fill="#1ED760"/>
</g>
</svg>
