<svg width="21" height="20" viewBox="0 0 21 20" fill="none" xmlns="http://www.w3.org/2000/svg">
<g id="heroicons-mini/speaker-wave">
<g id="Union">
<path d="M10.4615 3.75002C10.4615 3.4508 10.2755 3.18021 9.98811 3.06153C9.70075 2.94286 9.3671 2.99879 9.13915 3.20387L4.91959 7.00002H3.3134C2.9891 7.00002 2.69821 7.19074 2.58143 7.47993C2.26526 8.26287 2.09229 9.11302 2.09229 10C2.09229 10.887 2.26526 11.7372 2.58143 12.5201C2.69821 12.8093 2.9891 13 3.3134 13H4.91959L9.13915 16.7962C9.3671 17.0012 9.70075 17.0572 9.98811 16.9385C10.2755 16.8198 10.4615 16.5492 10.4615 16.25V3.75002Z" fill="white" fill-opacity="0.5"/>
<path d="M16.6859 5.05029C16.3795 4.7574 15.8827 4.7574 15.5763 5.05029C15.2699 5.34318 15.2699 5.81806 15.5763 6.11095C17.8233 8.25883 17.8233 11.7412 15.5763 13.8891C15.2699 14.182 15.2699 14.6569 15.5763 14.9498C15.8827 15.2427 16.3795 15.2427 16.6859 14.9498C19.5457 12.2161 19.5457 7.78396 16.6859 5.05029Z" fill="white" fill-opacity="0.5"/>
<path d="M14.4669 7.1716C14.1605 6.8787 13.6637 6.8787 13.3573 7.1716C13.0509 7.46449 13.0509 7.93936 13.3573 8.23226C14.3787 9.20857 14.3787 10.7915 13.3573 11.7678C13.0509 12.0607 13.0509 12.5356 13.3573 12.8285C13.6637 13.1213 14.1605 13.1213 14.4669 12.8285C16.1011 11.2664 16.1011 8.73369 14.4669 7.1716Z" fill="white" fill-opacity="0.5"/>
</g>
</g>
</svg>
